<?xml version="1.0" encoding="UTF-8" standalone="no"?>
<!-- Created with Inkscape (http://www.inkscape.org/) -->

<svg
   xmlns:dc="http://purl.org/dc/elements/1.1/"
   xmlns:cc="http://creativecommons.org/ns#"
   xmlns:rdf="http://www.w3.org/1999/02/22-rdf-syntax-ns#"
   xmlns:svg="http://www.w3.org/2000/svg"
   xmlns="http://www.w3.org/2000/svg"
   xmlns:sodipodi="http://sodipodi.sourceforge.net/DTD/sodipodi-0.dtd"
   xmlns:inkscape="http://www.inkscape.org/namespaces/inkscape"
   id="svg3336"
   version="1.1"
   inkscape:version="0.91 r13725"
   width="375"
   height="281.25"
   viewBox="0 0 375 281.25"
   sodipodi:docname="Untitled.svg">
  <metadata
     id="metadata3342">
    <rdf:RDF>
      <cc:Work
         rdf:about="">
        <dc:format>image/svg+xml</dc:format>
        <dc:type
           rdf:resource="http://purl.org/dc/dcmitype/StillImage" />
        <dc:title></dc:title>
      </cc:Work>
    </rdf:RDF>
  </metadata>
  <defs
     id="defs3340" />
  <sodipodi:namedview
     pagecolor="#ffffff"
     bordercolor="#ffffff"
     borderopacity="1"
     objecttolerance="10"
     gridtolerance="10"
     guidetolerance="10"
     inkscape:pageopacity="0"
     inkscape:pageshadow="2"
     inkscape:window-width="1707"
     inkscape:window-height="897"
     id="namedview3338"
     showgrid="false"
     inkscape:zoom="1.8353349"
     inkscape:cx="144.05856"
     inkscape:cy="159.903"
     inkscape:window-x="-8"
     inkscape:window-y="-8"
     inkscape:window-maximized="1"
     inkscape:current-layer="svg3336" />
  <path
     style="fill:#ffffff"
     d="m 61.252465,274.15605 c -0.389227,-1.01431 2.892633,-5.00393 10.603817,-12.89063 6.142128,-6.28191 15.677867,-16.55836 21.190531,-22.83654 20.861277,-23.75816 49.438817,-51.02458 70.228107,-67.00608 2.9184,-2.24347 10.93403,-8.66331 17.8125,-14.2663 6.87849,-5.603 17.94627,-14.46237 24.59509,-19.6875 20.32914,-15.97615 23.06741,-18.48564 37.02909,-33.93533 32.21133,-35.644343 36.74986,-40.07221 38.88508,-37.936995 0.6397,0.639705 -0.25434,1.978986 -2.74595,4.113495 -7.0597,6.047866 -36.69381,37.79071 -35.93357,38.49058 0.20025,0.18435 6.51168,-4.15182 14.02541,-9.635909 24.6161,-17.966733 42.82284,-29.855956 65.27938,-42.628221 7.86802,-4.474978 10.59055,-5.291643 10.59055,-3.176798 0,0.658526 -3.48047,2.972525 -7.73438,5.142219 -17.74042,9.048459 -35.68463,20.632957 -70.54687,45.543959 -22.40167,16.00722 -32.47207,24.23818 -31.20507,25.50517 0.27619,0.2762 2.98064,-0.94735 6.00987,-2.719 13.8447,-8.09709 45.74683,-22.217 53.47004,-23.66588 1.8587,-0.3487 3.68097,-0.15228 4.44126,0.4787 1.01643,0.84357 2.45273,0.0689 6.7866,-3.660437 3.02352,-2.601759 6.34105,-4.895044 7.3723,-5.096194 1.03125,-0.20115 5.84581,-1.013167 10.69901,-1.804488 11.59946,-1.891308 18.5352,-5.362875 26.33224,-13.180144 6.21995,-6.23608 7.86107,-7.158123 8.72649,-4.902861 0.52433,1.366377 -8.74965,10.827465 -16.69524,17.03208 -6.68589,5.220932 -26.79621,24.956514 -40.92337,40.160814 -28.52255,30.6973 -48.38927,57.24743 -64.10585,85.67186 -5.09775,9.2196 -7.89101,13.35938 -9.01406,13.35938 -4.38546,0 -2.83215,-3.46539 11.05905,-24.67243 24.68174,-37.68041 44.95934,-62.35708 79.04089,-96.18822 14.11811,-14.014372 15.21218,-15.330125 12.22459,-14.701569 -1.80469,0.379678 -5.8562,1.072922 -9.00335,1.540519 -7.88605,1.171716 -8.36229,1.402931 -16.30915,7.9184 -8.58533,7.03893 -11.29971,8.9158 -12.89427,8.9158 -2.04884,0 -2.43676,-2.76782 -0.66268,-4.72817 0.91875,-1.0152 1.4576,-2.05868 1.19745,-2.31884 -1.09432,-1.09431 -23.76605,8.34724 -40.1405,16.71635 -23.78932,12.1589 -24.13751,12.4331 -56.71875,44.66366 -37.35435,36.9523 -78.59616,75.042 -81.25208,75.042 -2.08275,0 -1.76591,-2.97267 0.50745,-4.76089 3.17428,-2.49689 15.7293,-18.85554 15.00375,-19.54924 -0.7624,-0.72892 -25.651285,25.21794 -36.358379,37.90388 -9.083913,10.76277 -17.573995,19.21875 -19.296251,19.21875 -0.553898,0 -1.260746,-0.66102 -1.570775,-1.46895 z M 124.83503,220.3125 c 30.77309,-28.06398 73.40873,-69.25625 72.56071,-70.10425 -0.51726,-0.51727 -6.69144,3.81375 -19.48157,13.66578 -15.11898,11.64592 -51.35167,45.23406 -51.35167,47.60362 0,0.31665 -2.74219,4.12825 -6.09375,8.47023 -9.1362,11.83601 -8.28997,11.90668 4.36628,0.36462 z M 34.21875,173.58885 c -4.410053,-2.10934 -5.934446,-4.3524 -6.686429,-9.83873 -2.612275,-19.05861 23.664484,-62.96827 51.064726,-85.33147 8.3325,-6.800718 32.011693,-23.10615 33.555393,-23.10615 2.00757,0 0.5072,2.315032 -2.72871,4.210319 C 105.11918,62.044011 92.178523,71.472453 81.665382,79.747294 58.372526,98.080988 35.044217,133.00628 30.845258,155.83116 28.823474,166.82125 32.149695,172.5 40.608734,172.5 c 4.701868,0 15.252668,-5.67312 23.213535,-12.48182 9.076999,-7.76329 44.927731,-44.5704 44.927731,-46.12625 0,-1.77171 5.13985,-11.2741 9.97057,-18.433233 6.23364,-9.238299 23.0565,-29.238217 31.69679,-37.682839 17.43361,-17.038828 38.73791,-31.867821 50.40117,-35.082061 3.61781,-0.99702 11.1138,0.44693 11.71718,2.257078 0.15881,0.476437 -5.93659,7.200001 -13.54535,14.941254 -7.60876,7.741253 -20.15728,20.811306 -27.88558,29.044563 -7.72831,8.233257 -20.99172,22.026462 -29.47425,30.651561 -8.48251,8.625117 -15.19172,15.913057 -14.90934,16.195447 1.62466,1.62466 17.67069,-7.86201 37.81006,-22.353899 23.60437,-16.985234 33.42917,-25.150768 47.03107,-39.088175 22.89675,-23.461533 37.68437,-35.06979 43.89875,-34.460414 1.72077,0.168738 2.91854,0.87587 3.09905,1.829608 0.38188,2.017773 -3.41418,5.442249 -22.77887,20.549087 -8.76563,6.838265 -20.02849,15.670032 -25.02858,19.626149 -18.43784,14.588173 -23.18209,24.648406 -8.97477,19.031094 8.71363,-3.445206 38.1498,-22.761612 45.96186,-30.160772 3.27916,-3.105853 3.62777,-3.228128 5.07566,-1.780249 1.44787,1.447879 1.22213,1.853623 -3.28663,5.907393 -6.07388,5.460933 -6.33818,7.381103 -0.38817,2.819971 11.23029,-8.608849 19.77466,-13.81407 21.68207,-13.208682 2.12977,0.675962 7.43364,-2.416698 18.3576,-10.704228 3.58822,-2.722226 8.04797,-5.487175 9.91054,-6.14433 10.09083,-3.560251 15.46633,-7.59864 18.54809,-13.934388 1.49488,-3.073316 1.86961,-3.338379 2.9238,-2.06816 1.85184,2.231333 0.45379,5.830776 -3.96562,10.209954 -4.14852,4.110747 -4.85165,4.528213 -14.7221,8.740783 -3.35156,1.430401 -9.25781,4.977747 -13.125,7.882992 -13.15383,9.881882 -17.32541,12.305539 -20.01736,11.629905 -2.0492,-0.514316 -4.01597,0.525556 -11.87534,6.278753 -5.18066,3.792337 -10.90751,7.738908 -12.72633,8.770158 l -3.30695,1.875 -1.73159,-2.106217 -1.73161,-2.106215 -11.57103,7.795743 c -19.41291,13.079042 -29.47694,17.012165 -33.73398,13.183576 -1.08054,-0.971788 -2.23123,-2.464513 -2.55709,-3.317166 -0.47897,-1.253294 -2.83742,0.164326 -12.31122,7.400045 -13.79737,10.537884 -32.84933,23.281214 -40.78125,27.277434 -3.09375,1.55868 -7.73438,3.34346 -10.3125,3.96619 -4.02341,0.97183 -5.68363,2.17721 -11.71875,8.50826 -4.72058,4.95206 -7.72445,7.37456 -9.14062,7.37156 -1.16016,-0.003 -2.10938,-0.42381 -2.10938,-0.93635 0,-0.51254 3.04066,-3.83144 6.75702,-7.37533 l 6.75703,-6.44344 -3.12357,-1.61527 -3.12357,-1.61525 -8.93798,9.69371 c -13.321046,14.44741 -34.158217,34.76277 -40.777286,39.75613 -10.639955,8.02669 -19.549681,10.42442 -26.457894,7.12019 z m 92.50203,-64.06893 c 22.71075,-25.021257 35.80732,-38.737043 55.099,-57.704081 10.08505,-9.915351 17.87283,-18.036445 17.30617,-18.046875 -2.00347,-0.03687 -16.4311,11.476974 -31.04495,24.77516 -17.33457,15.773968 -56.59041,56.194176 -55.4781,57.123646 1.12369,0.93897 4.26773,2.40417 5.21163,2.42872 0.60268,0.0157 4.61049,-3.84378 8.90625,-8.57657 z m 26.36768,-39.952372 c 20.99322,-20.671366 31.53827,-29.594325 45.85766,-38.803582 11.46625,-7.374318 6.37591,-8.525359 -6.75329,-1.527072 -22.72224,12.111681 -51.78484,40.001518 -71.29944,68.422294 -3.06949,4.470352 -5.58089,8.659222 -5.58089,9.308572 0,0.64935 5.29215,-4.34179 11.76034,-11.091426 6.46818,-6.749626 18.17522,-18.588581 26.01562,-26.308786 z m 83.62616,-31.581742 c 8.76165,-6.951557 16.07344,-13.068744 16.24845,-13.59375 1.57874,-4.736218 -13.92771,6.959541 -31.22629,23.552466 -6.4874,6.222763 0.12071,1.829055 14.97784,-9.958716 z m 74.70455,87.413214 c 0.24376,-1.70953 1.08562,-2.21289 4.51833,-2.7016 5.29155,-0.75335 11.06464,-3.13394 13.77513,-5.68032 l 2.08197,-1.95591 -3.24105,-3.95527 c -4.77096,-5.82233 -4.38631,-7.2832 2.71198,-10.30002 6.54925,-2.783469 11.89733,-3.49385 12.54066,-1.665772 0.22673,0.64426 -0.1502,1.328502 -0.8376,1.520542 -14.57312,4.0712 -15.37998,4.75688 -11.19979,9.51786 5.89107,6.70956 3.50425,10.25079 -10.11663,15.00964 -8.47761,2.9619 -10.6316,3.00628 -10.233,0.21085 z M 277.13155,9.7670747 C 276.33357,7.6875804 276.39455,7.5 277.86845,7.5 c 1.41415,0 2.66678,2.2772709 1.75445,3.189594 -0.96413,0.964142 -1.9004,0.617452 -2.49135,-0.9225193 z m 26.18136,0.2157572 c -1.16346,-0.8507411 -1.52403,-1.8436861 -1.08497,-2.9878345 0.62002,-1.6157379 0.77393,-1.5972978 2.69399,0.3227638 2.49716,2.4971672 1.16927,4.6966058 -1.60902,2.6650707 z"
     id="path3348"
     inkscape:connector-curvature="0" />
</svg>
