<?xml version="1.0" encoding="UTF-8"?><svg id="Layer_2" xmlns="http://www.w3.org/2000/svg" viewBox="0 0 550.98 550.98"><g id="Layer_1-2"><path d="M275.49,550.98c-73.59,0-142.77-28.66-194.8-80.69C28.66,418.26,0,349.08,0,275.49S28.66,132.72,80.69,80.69C132.72,28.66,201.91,0,275.49,0s142.77,28.66,194.8,80.69,80.69,121.21,80.69,194.8-28.66,142.77-80.69,194.8-121.21,80.69-194.8,80.69Zm0-535.98c-69.58,0-134.99,27.1-184.2,76.3C42.1,140.5,15,205.91,15,275.49s27.1,134.99,76.3,184.19c49.2,49.2,114.62,76.3,184.2,76.3s135-27.1,184.2-76.3,76.3-114.62,76.3-184.19-27.1-135-76.3-184.2S345.07,15,275.49,15Z"/><g><path d="M357.95,260.9h-87.71c-4.14,0-7.5-3.36-7.5-7.5s3.36-7.5,7.5-7.5h87.71c.86,0,1.55-.69,1.55-1.54v-8.79c0-.85-.7-1.54-1.55-1.54H123.18c-.86,0-1.55,.69-1.55,1.54v8.79c0,.85,.7,1.54,1.55,1.54h51.45c4.14,0,7.5,3.36,7.5,7.5s-3.36,7.5-7.5,7.5h-51.45c-9.13,0-16.55-7.42-16.55-16.54v-8.79c0-9.12,7.43-16.54,16.55-16.54h234.77c9.13,0,16.55,7.42,16.55,16.54v8.79c0,9.12-7.43,16.54-16.55,16.54Z"/><path d="M334.7,359.43c-.29,0-.59-.02-.89-.05-4.11-.49-7.05-4.21-6.57-8.33l11.64-98.52c.49-4.11,4.22-7.05,8.33-6.57,4.11,.49,7.05,4.21,6.57,8.33l-11.64,98.52c-.45,3.81-3.69,6.62-7.44,6.62Z"/><path d="M298.99,442.74H164.63c-8.15,0-15.13-6.09-16.24-14.17l-23.67-174.15c-.56-4.1,2.32-7.88,6.42-8.44,4.08-.57,7.88,2.32,8.44,6.42l23.67,174.14c.09,.68,.69,1.2,1.38,1.2h134.37c4.14,0,7.5,3.36,7.5,7.5s-3.36,7.5-7.5,7.5Z"/><path d="M329.27,421.19c-10.79,0-25.04-4.87-34.42-15.18-8.1-8.91-10.99-20.01-8.35-32.09,2.43-11.12,8.76-19.71,18.31-24.84,13.62-7.32,29.99-5.68,37.1-2.93,9.47,3.67,20.61,6.24,23.05,6.24,4.14,0,7.5,3.36,7.5,7.5s-3.36,7.5-7.5,7.5c-5.82,0-19.41-3.75-28.46-7.25-4.17-1.61-15.67-2.64-24.58,2.15-5.73,3.08-9.25,7.93-10.76,14.83-1.58,7.24,.03,13.56,4.8,18.81,6.68,7.35,18.34,10.99,25.3,10.16,6.55-.79,11.17-2.55,15.63-4.25,5.27-2.01,10.71-4.08,18.07-4.08,4.14,0,7.5,3.36,7.5,7.5s-3.36,7.5-7.5,7.5c-4.59,0-8,1.3-12.73,3.1-4.81,1.83-10.8,4.12-19.18,5.12-1.2,.14-2.46,.22-3.78,.22Z"/><path d="M330.3,456.91c-7.1,0-15.28-1.5-22.5-4.98-11.18-5.39-18.42-14.46-20.94-26.25-.19-.84-1.29-6.1-1.29-13.49,0-7,.07-31.88,.07-31.88l15,.04s-.07,24.85-.07,31.84c0,5.96,.93,10.2,.94,10.24,1.55,7.29,5.85,12.64,12.81,15.99,9.46,4.55,20.51,3.81,23.15,2.5,9.02-4.51,20.73-7.79,27.83-7.79,4.14,0,7.5,3.36,7.5,7.5s-3.36,7.5-7.5,7.5-13.46,2.37-21.13,6.2c-3.28,1.64-8.23,2.58-13.87,2.58Z"/><path d="M400.65,421.19c-1.32,0-2.58-.07-3.78-.22-8.38-1-14.37-3.29-19.18-5.12-4.72-1.8-8.13-3.1-12.73-3.1-4.14,0-7.5-3.36-7.5-7.5s3.36-7.5,7.5-7.5c7.36,0,12.8,2.08,18.07,4.08,4.46,1.7,9.08,3.46,15.63,4.25,6.97,.83,18.63-2.81,25.3-10.16,4.76-5.24,6.38-11.57,4.8-18.81-1.51-6.9-5.03-11.75-10.76-14.83-8.92-4.79-20.41-3.77-24.58-2.15-9.05,3.5-22.64,7.25-28.46,7.25-4.14,0-7.5-3.36-7.5-7.5s3.36-7.5,7.5-7.5c2.43,0,13.57-2.57,23.05-6.24,7.11-2.75,23.48-4.39,37.1,2.93,9.55,5.13,15.88,13.72,18.31,24.84,2.64,12.08-.25,23.18-8.35,32.09-9.37,10.32-23.63,15.18-34.42,15.18Z"/><path d="M399.62,456.91c-5.63,0-10.59-.94-13.87-2.58-8.06-4.03-16.55-6.2-20.46-6.2-4.14,0-7.5-3.36-7.5-7.5s3.36-7.5,7.5-7.5c6.93,0,17.85,3.13,27.16,7.79,2.64,1.32,13.7,2.06,23.15-2.5,6.96-3.35,11.26-8.7,12.79-15.9l.02-.11s.93-4.26,.93-10.22c0-6.99-.07-31.84-.07-31.84l15-.04s.07,24.88,.07,31.88c0,7.39-1.1,12.65-1.29,13.49-2.52,11.79-9.76,20.87-20.94,26.25-7.22,3.48-15.4,4.98-22.5,4.98Z"/><path d="M407.66,387.82c-6.03,0-10.93-4.9-10.93-10.93s4.9-10.93,10.93-10.93,10.93,4.9,10.93,10.93-4.9,10.93-10.93,10.93Z"/><path d="M383.81,393.42c-6.03,0-10.93-4.9-10.93-10.93s4.9-10.93,10.93-10.93,10.93,4.9,10.93,10.93-4.9,10.93-10.93,10.93Z"/><path d="M323.11,397.49c-6.03,0-10.93-4.9-10.93-10.93s4.9-10.93,10.93-10.93,10.93,4.9,10.93,10.93-4.9,10.93-10.93,10.93Z"/><path d="M350.41,389.36c-6.03,0-10.93-4.9-10.93-10.93s4.9-10.93,10.93-10.93,10.93,4.9,10.93,10.93-4.9,10.93-10.93,10.93Z"/><path d="M248.9,390.74c-.16,0-.3,0-.4,0h-52.23c-9.12,0-16.39-2.8-21.6-8.32-7.62-8.08-7.62-18.83-7.54-20.98V226.52c0-4.14,3.36-7.5,7.5-7.5s7.5,3.36,7.5,7.5v135.51h-.01s-.2,6.26,3.53,10.15c2.26,2.36,5.84,3.55,10.62,3.55h52.6c.33,0,6.54-.03,10.4-3.82,2.34-2.3,3.47-5.67,3.47-10.32v-49.59c-.73-4.24,.04-9.42,4.29-12.25,6.52-4.36,14.14,1.11,16.64,2.91,16.76,12.02,19.9,7.97,21.41,6.03,1.45-1.87,2.06-3.42,1.82-4.62-.37-1.9-2.79-4.3-6.46-6.43-3.79-2.2-10.98-5.78-17.32-8.94-8.02-4-12.3-6.14-14.12-7.4-6.25-4.34-6.25-8.5-6.25-14.8v-39.96c0-4.14,3.36-7.5,7.5-7.5s7.5,3.36,7.5,7.5v39.96c0,.9,0,1.88,.02,2.61,1.6,.96,7.36,3.83,12.04,6.16,6.54,3.26,13.96,6.95,18.17,9.39,7.69,4.46,12.41,10.18,13.65,16.53,.76,3.88,.56,9.92-4.69,16.69-12.02,15.5-30.34,5.01-39.19-1.04v44.76c0,8.84-2.73,15.97-8.12,21.17-7.72,7.45-18,7.97-20.72,7.97Zm28.93-120.6h0Z"/><path d="M244.54,390.73c-4.14,0-7.5-3.36-7.5-7.5v-58.12c0-4.14,3.36-7.5,7.5-7.5s7.5,3.36,7.5,7.5v58.12c0,4.14-3.36,7.5-7.5,7.5Z"/><path d="M221.93,390.73c-4.14,0-7.5-3.36-7.5-7.5v-58.13c0-4.14,3.36-7.5,7.5-7.5s7.5,3.36,7.5,7.5v58.13c0,4.14-3.36,7.5-7.5,7.5Z"/><path d="M198.53,389.8c-4.14,0-7.5-3.36-7.5-7.5v-56.87c0-4.14,3.36-7.5,7.5-7.5s7.5,3.36,7.5,7.5v56.87c0,4.14-3.36,7.5-7.5,7.5Z"/><g><path d="M145.44,234.02c-4.14,0-7.5-3.36-7.5-7.5v-50.93c0-3.2,1.08-6.34,3.05-8.86l20.24-25.91v-32.38c0-7.93,6.45-14.39,14.39-14.39h10.09c4.14,0,7.5,3.36,7.5,7.5s-3.36,7.5-7.5,7.5h-9.48v31.98c0,3.2-1.08,6.34-3.05,8.86l-20.24,25.91v50.72c0,4.14-3.36,7.5-7.5,7.5Z"/><path d="M185.71,150.71h-16.57c-4.14,0-7.5-3.36-7.5-7.5s3.36-7.5,7.5-7.5h16.57c4.14,0,7.5,3.36,7.5,7.5s-3.36,7.5-7.5,7.5Z"/><path d="M185.71,180.52h-37.51c-4.14,0-7.5-3.36-7.5-7.5s3.36-7.5,7.5-7.5h37.51c4.14,0,7.5,3.36,7.5,7.5s-3.36,7.5-7.5,7.5Z"/><path d="M224.68,234.02c-4.14,0-7.5-3.36-7.5-7.5v-50.72l-20.25-25.91c-1.97-2.52-3.05-5.66-3.05-8.86v-31.98h-9.48c-4.14,0-7.5-3.36-7.5-7.5s3.36-7.5,7.5-7.5h10.09c7.93,0,14.39,6.45,14.39,14.39v32.38l20.24,25.91c1.97,2.52,3.05,5.66,3.05,8.86v50.93c0,4.14-3.36,7.5-7.5,7.5Zm-30.18-124.96h0Z"/><path d="M200.98,150.71h-16.57c-4.14,0-7.5-3.36-7.5-7.5s3.36-7.5,7.5-7.5h16.57c4.14,0,7.5,3.36,7.5,7.5s-3.36,7.5-7.5,7.5Z"/><path d="M221.92,180.52h-37.51c-4.14,0-7.5-3.36-7.5-7.5s3.36-7.5,7.5-7.5h37.51c4.14,0,7.5,3.36,7.5,7.5s-3.36,7.5-7.5,7.5Z"/></g><path d="M306.83,157.53h-50.51c-3.99,0-7.4-1.59-9.6-4.48-4.09-5.37-2.62-13.33-.89-19.67,3.73-13.6,20.86-39.32,59.01-39.32h47.97c7.36,0,10.86,3.37,12.51,6.2,1.87,3.23,1.87,6.69,1.87,9.22v13.4c0,4.94-2.57,8.79-7.04,10.57-2.68,1.06-5.69,1.28-9.69,1.28h-13.83c-3.98,2.85-15.39,12.55-24.82,20.92l-2.13,1.89h-2.85Zm-47.64-15h44.79c25.8-22.81,27.67-22.81,30.71-22.81h15.76c.68,0,1.25,0,1.73-.02v-10.64h-47.35c-30.18,0-42.38,20.42-44.54,28.29-.64,2.34-.96,4.02-1.11,5.18Z"/><path d="M334.89,134.72c-4.14,0-7.5-3.36-7.5-7.5v-25.66c0-4.14,3.36-7.5,7.5-7.5s7.5,3.36,7.5,7.5v25.66c0,4.14-3.36,7.5-7.5,7.5Z"/><path d="M250.39,234.02c-4.14,0-7.5-3.36-7.5-7.5v-30.25c0-4.96,1.93-9.63,5.44-13.14l12.16-12.16c.68-.68,1.05-1.58,1.05-2.53v-18.41c0-4.14,3.36-7.5,7.5-7.5s7.5,3.36,7.5,7.5v18.41c0,4.96-1.93,9.63-5.44,13.14l-12.16,12.16c-.68,.68-1.05,1.58-1.05,2.53v30.25c0,4.14-3.36,7.5-7.5,7.5Z"/><path d="M334.89,234.02c-4.14,0-7.5-3.36-7.5-7.5v-17.32c0-.87-.32-1.71-.89-2.36l-22.56-25.74c-2.97-3.39-4.61-7.74-4.61-12.25v-18.83c0-4.14,3.36-7.5,7.5-7.5s7.5,3.36,7.5,7.5v18.83c0,.87,.32,1.71,.89,2.36l22.56,25.74c2.97,3.39,4.61,7.74,4.61,12.25v17.32c0,4.14-3.36,7.5-7.5,7.5Z"/><path d="M306.83,180.52h-38.78c-4.14,0-7.5-3.36-7.5-7.5s3.36-7.5,7.5-7.5h38.78c4.14,0,7.5,3.36,7.5,7.5s-3.36,7.5-7.5,7.5Z"/><path d="M342.38,180.53c-2.65,0-5.22-1.41-6.58-3.9,0,0-5-9.12-9.99-18.25-2.5-4.57-4.99-9.14-6.86-12.57-.94-1.73-1.72-3.17-2.26-4.18-1.02-1.89-3.72-6.93,.93-10.86,3.16-2.67,7.9-2.28,10.57,.88,.45,.54,.82,1.12,1.1,1.72,1.25,2.4,12.34,22.69,19.67,36.04,1.99,3.63,.66,8.19-2.97,10.18-1.14,.63-2.38,.92-3.6,.92Zm-15.07-38.31h0Zm2.58-4.74c-.23,1.78-1.1,3.48-2.58,4.74,1.56-1.32,2.36-3.04,2.58-4.74Zm-.5-3.85c.26,.62,.43,1.28,.51,1.93-.08-.68-.26-1.34-.51-1.93Z"/></g></g></svg>