<?xml version="1.0" encoding="UTF-8"?><svg id="Layer_2" xmlns="http://www.w3.org/2000/svg" viewBox="0 0 550.98 550.98"><g id="Layer_1-2"><path d="M275.49,550.98c-73.59,0-142.77-28.66-194.8-80.69C28.66,418.26,0,349.08,0,275.49S28.66,132.72,80.69,80.69C132.72,28.66,201.9,0,275.49,0s142.77,28.66,194.8,80.69,80.69,121.21,80.69,194.8-28.66,142.77-80.69,194.8-121.21,80.69-194.8,80.69Zm0-535.98c-69.58,0-134.99,27.1-184.2,76.3C42.1,140.5,15,205.91,15,275.49s27.1,134.99,76.3,184.19c49.2,49.2,114.62,76.3,184.2,76.3s134.99-27.1,184.19-76.3,76.3-114.62,76.3-184.19-27.1-135-76.3-184.2S345.07,15,275.49,15Z"/><g><path d="M375.15,451.89H212.09c-36.23,0-65.7-29.47-65.7-65.7v-28.82c0-5.52,4.48-10,10-10s10,4.48,10,10v28.82c0,25.2,20.5,45.7,45.7,45.7h163.06c25.2,0,45.7-20.5,45.7-45.7V164.79c0-25.2-20.5-45.7-45.7-45.7H212.09c-25.2,0-45.7,20.5-45.7,45.7v28.82c0,5.52-4.48,10-10,10s-10-4.48-10-10v-28.82c0-36.23,29.47-65.7,65.7-65.7h163.06c36.23,0,65.7,29.47,65.7,65.7v221.4c0,36.23-29.47,65.7-65.7,65.7Z"/><path d="M251.18,361.21c-2.95,0-5.92-.68-8.68-2.06-6.62-3.3-10.73-9.95-10.73-17.35v-27.75H103.5c-10.69,0-19.4-8.7-19.4-19.39v-47.12c0-10.69,8.7-19.39,19.4-19.39H232.64v-18.63c0-7.46,4.16-14.13,10.85-17.41,6.69-3.28,14.51-2.49,20.41,2.07l86.29,66.75c4.83,3.73,7.57,9.37,7.53,15.47-.04,6.1-2.86,11.7-7.74,15.37l-87.16,65.53c-3.44,2.59-7.52,3.91-11.63,3.91Zm-147.07-67.16H232.37c10.69,0,19.4,8.7,19.4,19.39v27.14l85.56-64.32-84.69-65.51v18c0,10.69-8.7,19.39-19.39,19.39H104.11v45.91Zm128.26,20h0Z"/></g></g></svg>