<?xml version="1.0" encoding="UTF-8"?><svg id="Layer_2" xmlns="http://www.w3.org/2000/svg" viewBox="0 0 550.98 550.98"><g id="Layer_1-2"><path d="M275.49,550.98c-73.59,0-142.77-28.66-194.8-80.69S0,349.08,0,275.49,28.66,132.72,80.69,80.69,201.9,0,275.49,0s142.77,28.66,194.8,80.69,80.69,121.21,80.69,194.8-28.66,142.77-80.69,194.8-121.21,80.69-194.8,80.69Zm0-535.98c-69.58,0-134.99,27.1-184.19,76.3S15,205.91,15,275.49s27.1,134.99,76.3,184.19,114.62,76.3,184.19,76.3,135-27.1,184.2-76.3,76.3-114.62,76.3-184.19-27.1-135-76.3-184.2S345.07,15,275.49,15Z"/><path d="M254.74,435.09h-95.03c-7.3,0-13.23-5.92-13.23-13.23V127.32c0-7.3,5.92-13.23,13.23-13.23h141.68c89.4,0,147.17,48.48,147.17,123.52s-57.77,123.52-147.17,123.52h-20.2c-7.3,0-13.23,5.92-13.23,13.23v47.51c0,7.3-5.92,13.23-13.23,13.23Zm-75.03-20h55.03c7.3,0,13.23-5.92,13.23-13.23v-47.51c0-7.3,5.92-13.23,13.23-13.23h40.2c78.44,0,127.17-39.67,127.17-103.52s-48.73-103.52-127.17-103.52h-121.68c-7.3,0-13.23,5.92-13.23,13.23v254.54c0,7.3,5.92,13.23,13.23,13.23Zm115.23-132.22h-33.75c-7.3,0-13.23-5.92-13.23-13.23v-64.07c0-7.3,5.92-13.23,13.23-13.23h33.75c16.16,0,28.87,4.02,37.77,11.94,8.84,7.86,13.51,19.39,13.51,33.32s-4.67,25.46-13.51,33.32c-8.9,7.92-21.61,11.93-37.77,11.93Zm-26.98-33.23c0,7.3,5.92,13.23,13.23,13.23h13.75c28.04,0,31.28-14.42,31.28-25.26,0-22.64-17.85-25.26-31.28-25.26h-13.75c-7.3,0-13.23,5.92-13.23,13.23v24.07Z"/></g></svg>