<?xml version="1.0" encoding="UTF-8"?><svg id="Layer_2" xmlns="http://www.w3.org/2000/svg" viewBox="0 0 550.98 550.98"><g id="Layer_1-2"><g><path d="M275.49,467.65c-1.23,0-2.47-.11-3.69-.33l-6.73-1.22c-40.27-6.66-73.32-25.09-98.23-54.8-20.18-24.06-35-55.53-44.06-93.53-16.66-69.89-8.84-139.79-7.1-153.1,.99-7.57,6.04-13.95,13.18-16.64l134.23-50.67c1.61-.66,5.72-2,12.4-2s10.8,1.35,12.4,2l134.23,50.67c7.14,2.7,12.19,9.07,13.18,16.64,1.74,13.3,9.56,83.2-7.1,153.1-9.06,38.01-23.89,69.48-44.06,93.53-24.91,29.7-57.96,48.14-98.23,54.8l-6.73,1.22c-1.23,.22-2.46,.33-3.69,.33Zm-5.17-351.65l-134.39,50.74c-.23,.09-.38,.28-.41,.52-1.66,12.69-9.13,79.38,6.72,145.87,18.51,77.66,60.97,122.5,126.18,133.25l.16,.03,6.8,1.24c.08,.01,.15,.01,.23,0l6.96-1.26c65.21-10.75,107.67-55.59,126.18-133.25,15.85-66.49,8.38-133.17,6.72-145.87-.03-.24-.19-.44-.41-.52l-134.72-50.86c-.41-.12-2.01-.53-4.85-.53-2.62,0-4.18,.35-4.73,.5l-.5,.29,.06-.13Z"/><g><g><path d="M254.86,257.27h-20v-29.74c0-11.38,5.69-20.86,15.6-26.01,3.93-2.05,8.42-3.13,12.97-3.13h12.07v20h-12.07c-1.35,0-2.64,.3-3.74,.87-3.34,1.74-4.83,4.29-4.83,8.27v29.74Z"/><path d="M316.12,257.27h-20v-29.74c0-2.76-.58-6.21-5.13-8.42-.97-.47-2.15-.72-3.42-.72h-12.09v-20h12.09c4.28,0,8.49,.95,12.17,2.74,10.4,5.07,16.37,14.69,16.37,26.4v29.74Z"/></g><path d="M320.89,352.58h-90.79c-15.57,0-28.24-12.67-28.24-28.24v-49.85c0-15.57,12.67-28.24,28.24-28.24h90.79c15.57,0,28.24,12.67,28.24,28.24v49.85c0,15.57-12.67,28.24-28.24,28.24Zm-90.79-86.33c-4.54,0-8.24,3.7-8.24,8.24v49.85c0,4.54,3.7,8.24,8.24,8.24h90.79c4.54,0,8.24-3.7,8.24-8.24v-49.85c0-4.54-3.7-8.24-8.24-8.24h-90.79Z"/><g><rect x="269.46" y="296.01" width="12.07" height="26.31" rx="3.79" ry="3.79"/><circle cx="275.49" cy="288.54" r="12.02"/></g></g></g><path d="M275.49,550.98c-73.59,0-142.77-28.66-194.8-80.69C28.66,418.26,0,349.08,0,275.49S28.66,132.72,80.69,80.69C132.72,28.66,201.9,0,275.49,0s142.77,28.66,194.8,80.69,80.69,121.21,80.69,194.8-28.66,142.77-80.69,194.8-121.21,80.69-194.8,80.69Zm0-535.98c-69.58,0-134.99,27.1-184.2,76.3C42.1,140.5,15,205.91,15,275.49s27.1,134.99,76.3,184.19c49.2,49.2,114.62,76.3,184.2,76.3s134.99-27.1,184.19-76.3,76.3-114.62,76.3-184.19-27.1-135-76.3-184.2S345.07,15,275.49,15Z"/></g></svg>