<?xml version="1.0" encoding="UTF-8"?><svg id="Layer_2" xmlns="http://www.w3.org/2000/svg" viewBox="0 0 550.98 550.98"><g id="Layer_1-2"><path d="M275.49,550.98c-73.59,0-142.77-28.66-194.8-80.69S0,349.08,0,275.49,28.66,132.72,80.69,80.69,201.9,0,275.49,0s142.77,28.66,194.8,80.69,80.69,121.21,80.69,194.8-28.66,142.77-80.69,194.8-121.21,80.69-194.8,80.69Zm0-535.98c-69.58,0-134.99,27.1-184.19,76.3S15,205.91,15,275.49s27.1,134.99,76.3,184.19,114.62,76.3,184.19,76.3,135-27.1,184.2-76.3,76.3-114.62,76.3-184.19-27.1-135-76.3-184.2S345.07,15,275.49,15Z"/><g><path d="M413.25,437.49H137.73c-15.57,0-28.24-12.67-28.24-28.24v-140.84c0-15.57,12.67-28.24,28.24-28.24H413.25c15.57,0,28.24,12.67,28.24,28.24v140.84c0,15.57-12.67,28.24-28.24,28.24ZM137.73,255.17c-7.3,0-13.24,5.94-13.24,13.24v140.84c0,7.3,5.94,13.24,13.24,13.24H413.25c7.3,0,13.24-5.94,13.24-13.24v-140.84c0-7.3-5.94-13.24-13.24-13.24H137.73Z"/><g><path d="M164.84,255.17c-1.89,0-3.78-.71-5.24-2.13-2.96-2.89-3.02-7.64-.13-10.61l92.73-95.06c2.89-2.96,7.64-3.03,10.61-.13,2.96,2.89,3.02,7.64,.13,10.61l-92.73,95.06c-1.47,1.51-3.42,2.26-5.37,2.26Z"/><path d="M386.14,255.17c-1.95,0-3.9-.76-5.37-2.26l-92.73-95.06c-2.89-2.96-2.83-7.71,.13-10.61,2.96-2.89,7.71-2.83,10.61,.13l92.73,95.06c2.89,2.96,2.83,7.71-.13,10.61-1.46,1.42-3.35,2.13-5.24,2.13Z"/></g><path d="M275.49,165.12c-18.65,0-33.82-15.17-33.82-33.82s15.17-33.82,33.82-33.82,33.82,15.17,33.82,33.82-15.17,33.82-33.82,33.82Zm0-52.64c-10.38,0-18.82,8.44-18.82,18.82s8.44,18.82,18.82,18.82,18.82-8.44,18.82-18.82-8.44-18.82-18.82-18.82Z"/><path d="M275.49,140.72c-2.41,0-4.83-.92-6.66-2.76-1.78-1.78-2.76-4.15-2.76-6.67s.98-4.89,2.76-6.67c3.67-3.67,9.65-3.67,13.33,0,3.67,3.67,3.67,9.65,0,13.33-1.84,1.84-4.25,2.76-6.67,2.76Z"/><path d="M392.59,297.36H158.21c-4.14,0-7.5-3.36-7.5-7.5s3.36-7.5,7.5-7.5h234.38c4.14,0,7.5,3.36,7.5,7.5s-3.36,7.5-7.5,7.5Z"/><path d="M350.7,327.87H200.1c-4.14,0-7.5-3.36-7.5-7.5s3.36-7.5,7.5-7.5h150.6c4.14,0,7.5,3.36,7.5,7.5s-3.36,7.5-7.5,7.5Z"/></g></g></svg>