<?xml version="1.0" encoding="utf-8"?>
<!-- Generator: Adobe Illustrator 26.3.1, SVG Export Plug-In . SVG Version: 6.00 Build 0)  -->
<svg version="1.1" id="Layer_2_00000010308171446884254900000009837337850145927099_"
	 xmlns="http://www.w3.org/2000/svg" xmlns:xlink="http://www.w3.org/1999/xlink" x="0px" y="0px" viewBox="0 0 551 551"
	 style="enable-background:new 0 0 551 551;" xml:space="preserve">
<g id="Layer_1-2">
	<path d="M275.5,551c-73.6,0-142.8-28.7-194.8-80.7S0,349.1,0,275.5S28.7,132.7,80.7,80.7S201.9,0,275.5,0s142.8,28.7,194.8,80.7
		S551,201.9,551,275.5s-28.7,142.8-80.7,194.8S349.1,551,275.5,551z M275.5,15c-69.6,0-135,27.1-184.2,76.3S15,205.9,15,275.5
		s27.1,135,76.3,184.2S205.9,536,275.5,536s135-27.1,184.2-76.3S536,345.1,536,275.5s-27.1-135-76.3-184.2S345.1,15,275.5,15z"/>
</g>
<g>
	<g>
		<path d="M312.2,387.3c0,20.3-16.5,36.7-36.7,36.7c-20.3,0-36.7-16.4-36.7-36.7c0-10,4-19,10.4-25.6c6.7-6.9,16-11.1,26.3-11.1
			c10.3,0,19.7,4.3,26.3,11.1C308.3,368.3,312.2,377.3,312.2,387.3z"/>
	</g>
	<g>
		<path d="M185.7,339.6c-3.7,0-7.4-1.4-10.3-4.2c-5.7-5.7-5.8-14.9-0.1-20.6c24.3-24.6,56.8-39.3,91.4-41.5
			c40.6-2.5,80.4,12.6,109,41.5c5.7,5.7,5.6,15-0.1,20.6c-5.7,5.7-15,5.6-20.6-0.1c-22.7-22.9-54.2-34.9-86.5-32.9
			c-27.4,1.7-53.1,13.4-72.4,32.9C193.2,338.1,189.4,339.6,185.7,339.6z"/>
	</g>
	<g>
		<path d="M414.7,290.2c-3.7,0-7.5-1.4-10.4-4.3c-36.9-37.1-88-56.5-140.2-53.2c-44.4,2.8-86.1,21.7-117.4,53.2
			c-5.7,5.7-14.9,5.8-20.6,0.1c-5.7-5.7-5.8-14.9-0.1-20.6c36.4-36.6,84.8-58.6,136.3-61.8c60.6-3.8,119.9,18.7,162.7,61.8
			c5.7,5.7,5.7,15-0.1,20.6C422.1,288.8,418.4,290.2,414.7,290.2z"/>
	</g>
	<g>
		<path d="M465.7,239.2c-3.7,0-7.5-1.4-10.3-4.3c-25.2-25.3-54.9-44.7-88.1-57.6c-34.3-13.3-70.6-18.9-107.6-16.6
			c-62,3.9-120.2,30.2-163.9,74.2c-5.7,5.7-14.9,5.7-20.6,0.1c-5.7-5.7-5.7-14.9-0.1-20.6c48.8-49,113.7-78.4,182.8-82.8
			c41.3-2.6,81.7,3.6,120,18.5c37,14.4,70,36,98.2,64.2c5.7,5.7,5.7,15,0,20.6C473.1,237.8,469.4,239.2,465.7,239.2z"/>
	</g>
</g>
</svg>
